<?xml version="1.0" encoding="utf-8"?>
<!-- Generator: Adobe Illustrator 26.3.1, SVG Export Plug-In . SVG Version: 6.00 Build 0)  -->
<svg version="1.1" xmlns="http://www.w3.org/2000/svg" xmlns:xlink="http://www.w3.org/1999/xlink" x="0px" y="0px"
	 viewBox="0 0 512 512" style="enable-background:new 0 0 512 512;" xml:space="preserve">
<style type="text/css">
	.st0{fill:#C54635;stroke:#1D1D1B;stroke-width:0.25;stroke-miterlimit:10;}
	.st1{fill:#D06B5D;stroke:#1D1D1B;stroke-width:0.25;stroke-miterlimit:10;}
	.st2{fill:#FEE18C;stroke:#1D1D1B;stroke-width:0.25;stroke-miterlimit:10;}
	.st3{fill:#B47168;stroke:#1D1D1B;stroke-width:0.25;stroke-miterlimit:10;}
	.st4{fill:#A9ACB8;stroke:#1D1D1B;stroke-width:0.25;stroke-miterlimit:10;}
	.st5{fill:#684025;stroke:#1D1D1B;stroke-width:0.25;stroke-miterlimit:10;}
	.st6{fill:#FED45D;stroke:#1D1D1B;stroke-width:0.25;stroke-miterlimit:10;}
	.st7{fill:#943528;stroke:#1D1D1B;stroke-width:0.25;stroke-miterlimit:10;}
	.st8{fill:#80828A;stroke:#1D1D1B;stroke-width:0.25;stroke-miterlimit:10;}
	.st9{fill:#FEE593;stroke:#1D1D1B;stroke-width:0.25;stroke-miterlimit:10;}
	.st10{fill:#9E442D;stroke:#1D1D1B;stroke-width:0.25;stroke-miterlimit:10;}
	.st11{fill:#FEF9EA;stroke:#1D1D1B;stroke-width:0.25;stroke-miterlimit:10;}
	.st12{fill:#FEF6E1;stroke:#1D1D1B;stroke-width:0.25;stroke-miterlimit:10;}
	.st13{fill:#FEE397;stroke:#1D1D1B;stroke-width:0.25;stroke-miterlimit:10;}
	.st14{fill:#FEE18B;stroke:#1D1D1B;stroke-width:0.25;stroke-miterlimit:10;}
	.st15{fill:#EBEEF0;stroke:#1D1D1B;stroke-miterlimit:10;}
	.st16{fill:#2E7C32;stroke:#1D1D1B;stroke-miterlimit:10;}
	.st17{fill:#388D3C;stroke:#1D1D1B;stroke-miterlimit:10;}
	.st18{fill:#F9F9F9;stroke:#1D1D1B;stroke-miterlimit:10;}
</style>
<g id="Calque_1">
	<g>
		<path class="st0" d="M138.7,349.7c-1.8-1.8-3.6-3.7-5.4-5.5c-1.5-1.5-2.1-3.2-1.3-5.2c0.8-2,2.4-2.8,4.4-2.8c11.5,0,23,0,34.5,0.1
			c0.6,0.8,0,1.5-0.4,2.2c-4.9,10-3.1,21,4.7,28.9c8.2,8.3,16.5,16.5,24.7,24.7c0.7,0.7,1.6,1.4,1.7,2.6c0,2.4,0.1,4.7,0,7.1
			c0,1.9-0.9,3.4-2.8,4.2c-1.9,0.8-3.6,0.3-5.1-1.2c-1.9-1.8-3.8-3.7-5.6-5.6c-1-0.1-1.6-0.8-2.3-1.5c-2.5-2.4-4.9-5-7.5-7.3
			c-5.1-5.4-10.4-10.6-15.8-15.8c-3.3-3.5-6.8-6.9-10.2-10.3c-4-4-8-8-12-12.1C139.7,351.5,138.9,350.8,138.7,349.7z"/>
		<path class="st1" d="M201.7,394.6c-8.7-8.7-17.3-17.5-26.1-26.1c-5.2-5.1-8.3-11.2-8.5-18.5c-0.1-4.1,0.8-8.1,2.8-11.8
			c0.4-0.6,0.8-1.2,0.9-1.9c7.9,0,15.7-0.2,23.6,0c4.2,0.1,6.9,3,7.3,7.2c0.1,0.7,0.1,1.5,0.1,2.2c0,15.7,0,31.4,0,47
			C201.8,393.3,201.7,393.9,201.7,394.6z"/>
		<path class="st2" d="M163.2,424c-4.2,4.2-8.3,8.4-12.5,12.6c-0.5,0.6-1.3,1-1.4,1.8c-0.2,1-1,1.5-1.7,2.1
			c-2.3,2.3-4.5,4.6-6.8,6.8c-0.6,0.6-1.1,1.1-1.9,1.3c-1.1,0-1.7-0.9-2.4-1.6c-2.8-2.8-5.6-5.6-8.4-8.4c-2.2-2.1-3.4-2.1-5.5,0
			c-1.1,1-2,2.1-3.2,3c-0.8,0.6-1.8,0.5-2.7,0.5c-11.6,0-23.2,0-34.8,0c-1,0-2,0.2-2.8-0.6c-2-2.7-1.7-9.5,1.9-13.4
			c1.4-1.5,2.8-3,4.4-4.3c0.2-0.1,0.3-0.2,0.5-0.3c0.8-0.2,1.6-0.1,2.4-0.1c24.1,0,48.2,0,72.2,0C161.4,423.5,162.4,423.2,163.2,424
			z"/>
		<path class="st3" d="M163.2,424c-1.1,0-2.2-0.1-3.4-0.1c-23.8,0-47.7,0-71.5,0c-0.8,0-1.6-0.1-2.4-0.1c0-1,0.7-1.5,1.3-2.1
			c4.4-4.4,8.8-8.9,13.3-13.3c0.4-0.5,0.9-0.7,1.4-0.7c1-0.1,2-0.1,3-0.1c23.8,0,47.5,0,71.3,0c1,0,2.1-0.5,2.9,0.6
			C173.8,413.4,168.5,418.7,163.2,424z"/>
		<path class="st2" d="M179.1,408.1c-0.3,0-0.5-0.1-0.8-0.1c-25.4,0-50.8,0-76.1,0c-0.6-0.9,0.2-1.5,0.7-2
			c5.2-5.2,10.4-10.6,15.7-15.6c0.2-0.1,0.4-0.3,0.5-0.4c0.7-0.3,1.5-0.2,2.3-0.2c15.6,0,31.2,0,46.7,0c0.8,0,1.6-0.1,2.4,0.2
			c0.2,0.1,0.4,0.2,0.6,0.3c4,3.7,7.8,7.7,11.6,11.5c0.5,0.5,0.9,1,0.9,1.7C182.2,405.1,180.7,406.6,179.1,408.1z"/>
		<path class="st4" d="M70.5,447.2c-6,3.6-12.5,4.6-19.3,3.6c-15.9-2.4-27.1-15-27.4-31.1c-0.2-8.4,2.7-15.9,8.5-22
			c4.2-4.5,8.7-8.7,13-13.1c1-1,1.6-1,2.5,0c2.1,2.3,4.3,4.5,6.6,6.6c1,0.9,0.9,1.5,0,2.4c-3.9,3.8-7.8,7.8-11.7,11.6
			c-6.2,6.1-8,13.4-4.7,21.4c3.2,7.8,9.4,11.6,17.9,11.7c0.3,0,0.5,0.1,0.8,0.1c0.9,0.2,1.5,0.7,2.1,1.3c1.3,1.3,2.5,2.5,3.7,3.8
			c1.7,1.9,3.8,2.9,6.4,3.1C69.5,446.6,70.2,446.5,70.5,447.2z"/>
		<path class="st5" d="M134.2,471c-11.6,11.7-23.3,23.3-34.9,35c-0.8,0.8-1.2,0.8-2,0c-2.2-2.3-4.5-4.7-6.9-6.9
			c-1-0.9-0.9-1.4,0-2.3c7.7-7.6,15.4-15.3,23-23c0.6-0.6,1.1-1.1,1.6-1.7c0-0.6,0.4-1.1,0.8-1.5c2.6-2.7,5.2-5.3,7.8-7.8
			c0.4-0.4,0.9-0.8,1.5-0.8c0.7,0.1,1.2,0.5,1.7,0.9c2.1,2.1,4.2,4.2,6.3,6.3C133.8,469.7,134.2,470.3,134.2,471z"/>
		<path class="st4" d="M134.2,471c-3-3-6-6-9-9c-2.2-0.7-3.3-2.7-4.9-4.1c-2-2.1-4.1-4.1-6.1-6.2c-2.2-2.3-2.3-4.3,0-6.5
			c1.3-1.3,2.3-2.9,4.2-3.5c1.2-1.2,2.5-2.4,3.7-3.6c2.5-2.5,3.8-2.5,6.3-0.1c3.5,3.5,6.9,6.9,10.4,10.4c0.4,0,0.8,0.1,1.1,0.4
			c2.6,2.4,5.1,4.9,7.5,7.5c0.3,0.3,0.4,0.7,0.4,1.1C143.3,462,138.7,466.5,134.2,471z"/>
		<path class="st6" d="M138.7,349.7c7.9,7.9,15.8,15.7,23.7,23.6c0.3,0.3,0.7,0.6,0.6,1.2c-3.4,0.6-6.8,0.1-10.2,0.3
			c-0.7,0-1.5,0-2.2-0.3c-3.8-1.1-7.6-1.3-11.4,0.1c-0.9,0.5-1.8,0.2-2.8,0.2c-6.6-0.1-13.2,0-19.8,0c-0.8,0-1.7,0.2-2.5-0.4
			c7.1-7.2,14.2-14.3,21.4-21.5C136.7,351.7,137.7,350.7,138.7,349.7z"/>
		<path class="st3" d="M118.4,441.9c-1.4,1.4-2.9,2.9-4.3,4.4c-1.4,1.5-1.5,3.2,0,4.7c2.1,2.2,4.3,4.4,6.5,6.6
			c-0.4,1-1.2,0.6-1.9,0.6c-7.6,0-15.1,0-22.7,0c-0.7,0-1.5-0.1-2.1-0.5c-4.7-4.7-9.4-9.3-14-14c-0.2-0.7-0.9-1.1-0.9-1.9
			c0.1-0.2,0.2-0.3,0.4-0.2c11.6,0,23.2,0.1,34.8,0.1C115.7,441.8,117.1,441.8,118.4,441.9z"/>
		<path class="st6" d="M119.6,390.1c-5.4,5.4-10.9,10.9-16.3,16.3c-0.4,0.4-1.1,0.8-1.1,1.6c-0.4,0-0.7,0.1-1.1,0.1
			c-0.3,0.2-0.7,0.3-1.1,0.3c-6,0-12,0-18,0c-0.5,0-1.1,0-1.5-0.4c6-6,12-12,18-18.1c0.8-0.4,1.6-0.4,2.5-0.4c5.4,0,10.8,0,16.3,0
			C118.1,389.5,119.1,389.2,119.6,390.1z"/>
		<path class="st7" d="M119.6,390.1c-6.3,0-12.6,0-18.9-0.1c-0.7,0-1.4-0.1-2.1-0.2c5.2-5.2,10.5-10.4,15.7-15.7
			c6.6,0,13.3,0.1,19.9,0.1c0.8,0,1.6,0,2.4,0.1c0.5,0.7-0.1,1-0.5,1.3c-5.3,3.2-8.9,8.2-13.4,12.3c-0.9,0.8-1.6,1.9-3,2.1
			L119.6,390.1z"/>
		<path class="st7" d="M80.6,408c6.1,0,12.3,0.1,18.4,0.1c0.7,0,1.4,0.1,2.2,0.1c0,0.7-0.6,1-1,1.4c-4.7,4.7-9.5,9.5-14.2,14.2
			c0,0-0.1,0.1-0.1,0.1c-1.1,0.3-2.2,0.3-3.3,0.3c-4.9,0-9.8,0-14.7,0c-0.8,0-1.7,0.3-2.4-0.5c0.3-0.6,0.6-1.2,1-1.7
			C71.2,417.3,75.9,412.6,80.6,408z"/>
		<path class="st6" d="M62.4,353.6c6,4.4,12.4,4.8,19.2,2c1-0.4,1.8-1,2.7-1.5c0.3,0,0.5,0.2,0.5,0.5c-4.5,7-4.3,16.3,0.5,21.9
			c0.1,0.4-0.1,0.6-0.5,0.5c-6-4.4-12.4-4.9-19.2-2c-1,0.4-1.8,1-2.7,1.5c-0.3,0-0.5-0.2-0.5-0.5c4.5-7.1,4.3-16.4-0.5-21.9
			C61.8,353.8,62,353.6,62.4,353.6z"/>
		<path class="st2" d="M94.1,457.7c8.2,0,16.3-0.1,24.5-0.1c0.7,0,1.4-0.1,2.1-0.1c1.5,1.5,3.1,3.1,4.6,4.6
			c-3.4,3.4-6.8,6.7-10.2,10.1c-3.4,1.4-6.1,0.8-8.7-1.9C102.4,466,98.2,461.9,94.1,457.7z"/>
		<path class="st5" d="M147.8,457.5c-3-3-6-6-9-9c3.5-3.3,6.6-7.1,10.5-10.1c3.4-1.3,6.5-0.5,8.2,2.1c1.7,2.7,1.3,5.9-1.2,8.4
			C153.5,451.8,150.6,454.7,147.8,457.5z"/>
		<path class="st6" d="M65.5,423.6c5.2,0.4,10.3,0.1,15.5,0.2c1.7,0,3.3,0,5,0.1c-2.4,2.7-5.6,4.7-6.8,8.4c-1,3.2-1.2,6.3,0.4,9.4
			c-0.1,0.1-0.2,0.1-0.3,0.2c-0.4,0.2-0.8,0-1.1,0l0,0.1c-0.6-0.1-1.1-0.3-1.6-0.8c-2.3-2.2-4.5-4.4-6.7-6.7
			c-0.4-0.4-0.7-0.9-0.8-1.6c-0.6-0.7-1.3-1.3-1.9-2C65,428.8,64.4,426.4,65.5,423.6z"/>
		<path class="st8" d="M69,432.9c3,3,6,6,9.1,9c-2.3,2.1-4.6,4.2-7.6,5.4c-3.9,0.3-6.8-1.4-9.3-4.3c-1.4-1.6-3-3-4.5-4.5
			C61.4,437.8,65.6,436.2,69,432.9z"/>
		<path class="st6" d="M183.7,403.5c-4.5-4.5-9-8.9-13.4-13.4c0-0.1,0.1-0.3,0.2-0.3c2.8-0.4,5.5-0.8,8.3,0.2
			c1.7,0.8,2.8,2.4,4.1,3.6c1.9,1.8,3.6,3.6,5.4,5.5C186.7,400.6,185.2,402.1,183.7,403.5z"/>
		<path class="st9" d="M76.6,347.8c-1-0.2-1.9-0.4-2.9-0.4c-3.3-0.1-3.3,0-3.3-3.2c0-2.9,0-5.8,0-8.7c0-1.2,0.4-1.6,1.6-1.6
			c4.9-0.2,4.9-0.2,4.9,4.7c0,2.4,0,4.9,0,7.3C76.8,346.2,76.9,346.7,76.6,347.8z"/>
		<path class="st9" d="M104.9,368.4c-0.4,0.1-0.8,0.1-1.2,0.1c-3.6,0-7.1,0-10.7,0c-1.1,0-1.5-0.4-1.5-1.5c-0.2-5-0.3-5,4.6-5
			c2.5,0,5,0,7.5,0c1.1,0,1.5,0.4,1.4,1.5c-0.1,1.2,0,2.4,0,3.6C105,367.6,104.9,367.9,104.9,368.4z"/>
		<path class="st9" d="M42.3,368.4c-0.6-0.9-0.3-1.8-0.3-2.6c0-4.3-0.6-3.7,3.6-3.7c2.8,0,5.7,0,8.5,0c1,0,1.3,0.3,1.4,1.4
			c0.2,5.1,0.3,5.1-4.8,5.1c-2.4,0-4.7,0-7.1,0C43.2,368.6,42.7,368.5,42.3,368.4z"/>
		<path class="st9" d="M76.6,396.6c-0.5,0.3-1.2,0.2-1.7,0.2c-4.5,0-4.5,0-4.5-4.4c0-2.5,0-5,0-7.5c0-1.2,0.4-1.6,1.6-1.6
			c4.9-0.2,4.9-0.2,4.9,4.7c0,2.4,0,4.9,0,7.3C76.8,395.7,76.9,396.2,76.6,396.6z"/>
		<path class="st10" d="M78.1,441.8c0.4,0,0.8,0,1.1,0c0.5,0.5,0.9,1.1,0.8,1.9C79.4,443.1,78.7,442.4,78.1,441.8z"/>
		<path class="st11" d="M85.1,353.3c0.5-0.4,0.7-1.1,1.6-1c0.1,0.8-0.7,1.1-1,1.6C85.3,353.8,85.1,353.6,85.1,353.3z"/>
		<path class="st12" d="M62.4,353.6c-0.2,0.2-0.3,0.3-0.5,0.5c-0.4-0.4-1.1-0.7-1.1-1.6C61.6,352.5,61.9,353.2,62.4,353.6z"/>
		<path class="st12" d="M84.8,377.1c0.2-0.2,0.3-0.3,0.5-0.5c0.5,0.4,1,0.8,1.2,1.6C85.6,378.2,85.3,377.5,84.8,377.1z"/>
		<path class="st11" d="M62.1,377.4c-0.5,0.4-0.8,1-1.5,1.1c-0.1-0.9,0.6-1.2,1-1.7C61.8,376.9,62,377.1,62.1,377.4z"/>
		<path class="st13" d="M85.1,353.3c0.2,0.2,0.4,0.4,0.5,0.5c-0.3,0.3-0.6,0.5-0.9,0.8c-0.2-0.2-0.3-0.3-0.5-0.5
			C84.5,353.9,84.8,353.6,85.1,353.3z"/>
		<path class="st13" d="M62.1,377.4c-0.2-0.2-0.4-0.4-0.5-0.5c0.3-0.3,0.6-0.5,0.9-0.8c0.2,0.2,0.3,0.3,0.5,0.5
			C62.6,376.9,62.3,377.1,62.1,377.4z"/>
		<path class="st7" d="M178.7,390c-2.8,0-5.6,0.1-8.4,0.1c0,0-0.1-0.1-0.1-0.1c-1.1-0.1-1.7-0.9-2.4-1.6c-2.4-2.4-4.9-4.8-7.3-7.3
			c-2-2.1-4.1-4-6.7-5.5c-0.5-0.3-1.4-0.4-1-1.4c3.4,0,6.8,0,10.2,0c0.5,0.1,1,0.4,1.3,0.8c4.6,4.6,9.2,9.2,13.8,13.8
			C178.5,389.3,178.8,389.6,178.7,390z"/>
		<path class="st3" d="M152.8,374.4c7,3.9,11.6,10.4,17.4,15.6c-0.7,0-1.4,0.1-2.2,0.1c-15.4,0-30.8,0-46.2,0
			c-0.7,0-1.4-0.1-2.2-0.1c3.5-3.5,7-6.9,10.5-10.4c1.8-1.8,3.6-3.4,5.9-4.5c0.3-0.2,0.6-0.3,0.5-0.7c0.8-0.4,1.7,0.3,2.5-0.3
			c3.9-0.6,7.9-0.5,11.8,0C151.5,374.2,152.2,374.3,152.8,374.4z"/>
		<path class="st14" d="M150.9,374.1c-3.9,0.3-7.9,0.3-11.8,0C143,372.6,146.9,372.7,150.9,374.1z"/>
	</g>
</g>
<g id="Calque_2">
	<g>
		<g>
			<path class="st15" d="M491,66.3v214c-1.5,6.3-4.6,8.9-11.2,9c-9.5,0.2-18.9,0.1-28.4,0.1c-33.5,0-66.9,0-100.4,0
				c-2.1,0-4.4,0.4-6.3-1c-1-1.3-1-2.8-1-4.3c0-11.2,0-22.3,0-33.5c0-1.3,0-2.6,0.7-3.8c1.2-1.6,3.1-1.4,4.8-1.4
				c7.8-0.1,15.6,0,23.5,0c1.4,0,2.8,0,4.2-0.1c4.9-0.6,8.5-4.4,8.6-9.1c0.1-4.8-3.6-8.8-8.7-9.3c-2.2-0.2-4.3-0.1-6.5-0.1
				c-6.9,0-13.9,0-20.8,0c-1.7,0-3.5,0.2-4.9-1.2c-0.9-1.5-0.9-3.1-0.8-4.7c0.3-5.3-0.8-10.6,0.7-15.8c1.3-1.5,3.1-1.3,4.8-1.3
				c7.8-0.1,15.6,0,23.4,0c1.4,0,2.8,0,4.2-0.1c4.9-0.6,8.5-4.4,8.5-9.1c0-4.7-3.5-8.6-8.4-9.3c-2.6-0.3-5.2-0.1-7.8-0.2
				c-6.7,0-13.5,0-20.2,0c-1.6,0-3.3,0.2-4.6-1.2c-0.9-1.5-0.9-3.1-0.8-4.7c0.3-5.3-0.8-10.6,0.7-15.8c1.3-1.5,3.1-1.3,4.8-1.3
				c7.8-0.1,15.6,0,23.4,0c1.4,0,2.8,0,4.2-0.1c4.9-0.6,8.5-4.4,8.5-9.1c0-4.7-3.5-8.6-8.4-9.3c-2.6-0.3-5.2-0.1-7.8-0.2
				c-6.7,0-13.5,0-20.2,0c-1.6,0-3.3,0.2-4.6-1.2c-0.9-1.5-0.9-3.1-0.8-4.7c0.3-5.3-0.8-10.6,0.7-15.8c1.3-1.5,3.1-1.3,4.8-1.3
				c7.8-0.1,15.6,0,23.5,0c1.4,0,2.8,0,4.2-0.1c4.9-0.6,8.5-4.5,8.5-9.1c0-4.7-3.5-8.6-8.4-9.2c-3.2-0.4-6.5-0.1-9.8-0.2
				c-6.1,0-12.2,0-18.2,0c-1.6,0-3.3,0.2-4.5-1.3c-0.8-1.4-0.7-2.9-0.8-4.4c0-10.8,0-21.7,0-32.5c0-1.6-0.1-3.3,0.9-4.7
				c1.3-1.2,3-1.1,4.6-1.1c43.3,0,86.6,0,129.9,0c0.2,0,0.4,0,0.7,0C486.2,57.5,489.5,60.1,491,66.3"/>
			<path class="st16" d="M345,288.1c0,9.9-0.1,19.8-0.1,29.7c0,8.7-5.3,13.1-14,11.5c-54.8-10.3-109.7-20.5-164.5-30.8
				c-5.9-1.1-9.4-5.1-9.4-11.1c0-76.1,0-152.2,0-228.3c0-5.8,3.4-9.9,9.1-11c39.6-7.4,79.2-14.8,118.7-22.2
				c15.6-2.9,31.2-5.8,46.7-8.7c7.7-1.4,13.2,3.1,13.3,11c0.1,10.1,0.1,20.2,0.1,30.3c0,13.9,0,27.8-0.1,41.7c1.7,3.2,1.7,17.8,0,21
				c0,6.9,0,13.8,0,20.7c1.7,3.2,1.7,17.8,0,21c0,6.9,0,13.8,0,20.7c1.7,3.2,1.7,17.8,0,21c0,6.9,0,13.8,0,20.7
				c1.7,3.2,1.7,17.8,0,21C344.9,260.3,344.9,274.2,345,288.1"/>
			<path class="st17" d="M344.9,121.1c0-7,0-14,0-21c10.3,0,20.6,0,30.9,0.1c7.9,0.1,13,7.4,10,14.4c-1.9,4.4-5.5,6.5-10.3,6.5
				C365.3,121.1,355.1,121.1,344.9,121.1"/>
			<path class="st17" d="M344.9,162.9c0-7,0-14,0-21c10.3,0,20.6,0,30.9,0.1c7.9,0.1,13,7.4,10,14.4c-1.9,4.4-5.5,6.5-10.3,6.5
				C365.3,162.8,355.1,162.9,344.9,162.9"/>
			<path class="st17" d="M344.9,204.6c0-7,0-14,0-21c10.3,0,20.6,0,30.9,0.1c7.9,0.1,13,7.4,10,14.4c-1.9,4.4-5.5,6.5-10.3,6.5
				C365.3,204.6,355.1,204.6,344.9,204.6"/>
			<path class="st17" d="M344.9,246.4c0-7,0-14,0-21c10.3,0,20.6,0,30.9,0.1c7.9,0.1,13,7.4,10,14.4c-1.9,4.4-5.5,6.5-10.3,6.5
				C365.3,246.3,355.1,246.4,344.9,246.4"/>
			<path class="st17" d="M428.3,100.2c3.5,0,7-0.1,10.4,0c6,0.2,10.4,4.6,10.4,10.3c0,5.8-4.5,10.4-10.6,10.5
				c-6.8,0.1-13.7,0.1-20.5,0c-6.1-0.1-10.6-4.7-10.6-10.5c0-5.7,4.5-10.1,10.4-10.3C421.4,100.1,424.9,100.2,428.3,100.2"/>
			<path class="st17" d="M428.3,162.8c-3.5,0-7,0.1-10.4,0c-5.9-0.2-10.4-4.7-10.4-10.3c0-5.7,4.4-10.3,10.3-10.5
				c7.1-0.2,14.1-0.2,21.2,0c5.9,0.1,10.3,4.8,10.2,10.5c-0.1,5.7-4.5,10.1-10.5,10.3C435.3,162.9,431.8,162.8,428.3,162.8"/>
			<path class="st17" d="M428.4,204.5c-3.5,0-7,0.1-10.4,0c-6-0.2-10.4-4.6-10.5-10.2c-0.1-5.8,4.4-10.5,10.5-10.6
				c6.9-0.1,13.9-0.1,20.9,0c5.9,0.1,10.3,4.7,10.3,10.4c0,5.7-4.4,10.2-10.4,10.4C435.4,204.6,431.9,204.5,428.4,204.5"/>
			<path class="st17" d="M428.4,246.3c-3.5,0-7,0.1-10.4,0c-5.9-0.2-10.4-4.6-10.4-10.3c0-5.7,4.4-10.3,10.3-10.5
				c7.1-0.2,14.1-0.2,21.2,0c5.9,0.1,10.3,4.8,10.3,10.5c0,5.7-4.5,10.1-10.4,10.3C435.3,246.4,431.8,246.3,428.4,246.3"/>
			<path class="st18" d="M254.5,187.2c-6.3,8.1-12.4,15.9-18.5,23.8c-2.5,3.3-5,6.6-7.6,9.8c-4.2,5.2-10.3,6.1-15.2,2.3
				c-4.7-3.5-5.3-9.9-1.2-15.1c8.9-11.5,17.8-23,26.8-34.4c1.6-2,1.4-3-0.2-4.8c-8.8-9.9-17.5-19.9-26.2-29.9
				c-5.6-6.5-3-15.5,5-17.5c4.5-1.1,8,0.7,11,4.1c7.6,8.7,15.2,17.3,22.7,26c2.6,2.9,2.6,2.9,4.9-0.1c9.3-11.9,18.5-23.8,27.8-35.8
				c2.8-3.6,6.3-5.7,11-4.8c7.8,1.5,11,10.3,6.1,16.8c-6.6,8.8-13.4,17.3-20.2,26c-3.7,4.7-7.2,9.5-11,14.1c-1.6,1.9-1.7,3.1,0,5.1
				c10.3,11.5,20.4,23.1,30.5,34.8c5.6,6.5,2.9,15.6-5.1,17.5c-4.5,1.1-8-0.8-10.9-4.1c-8.3-9.5-16.6-19-24.9-28.5
				C257.7,190.8,256.2,189.1,254.5,187.2"/>
		</g>
	</g>
</g>
</svg>
